<svg viewBox="0 0 2096 1024" fill="none" xmlns="http://www.w3.org/2000/svg" preserveAspectRatio="xMidYMid slice">
<rect width="2096" height="1024" fill="url(#paint0_linear_34_22)"/>
<path d="M1684 881.5V856H1676.5L1638 869.81L1630.5 872.5V916.216L1684 894V881.5Z" fill="#F0F7EE"/>
<path d="M2 1020.5H58M2093 1020.5H2060M2060 1020.5V865.5M2060 1020.5H2029.5M2060 865.5H2067.5L2063 853H2056M2060 865.5H2007.5M2012 853H2004.5L2000 865.5H2007.5M2012 853L2025 828H2033.5M2012 853H2056M2033.5 828V815.5M2033.5 828H2041.5L2056 853M2007.5 865.5V903M2007.5 903L2029.5 921.5V1020.5M2007.5 903L1983.5 883V904.5M2029.5 1020.5H2014M1983.5 904.5V836H1971.5M1983.5 904.5V1020.5M1934 836H1923.5V862.5M1934 836V815.5H1971.5V836M1934 836H1971.5M1923.5 961.5H1930.5V1020.5M1923.5 961.5H1871M1923.5 961.5V862.5M1930.5 1020.5H1863.5M1930.5 1020.5H1953M1863.5 1020.5V961.5H1871M1863.5 1020.5H1775M1871 961.5V862.5H1883.5M1923.5 862.5H1910.5M1910.5 862.5V829.5L1883.5 843V862.5M1910.5 862.5H1883.5M1983.5 1020.5H1998.5M1983.5 1020.5H1967.5M1775 1020.5V932.5M1775 1020.5H1729M1775 932.5H1762.5M1775 932.5H1737M1737 932.5H1762.5M1737 932.5V963.5M1762.5 932.5V896.5L1697 889M1697 889V1020.5M1697 889L1684 881.5M1697 1020.5H1729M1697 1020.5H1683.5M1684 881.5V856M1684 881.5V894M1684 856V894M1684 856H1676.5M1684 894L1630.5 916.216M1625 1020.5V918.5L1630.5 916.216M1625 1020.5H1577M1625 1020.5H1637.5M1630.5 916.216V872.5L1638 869.81M1676.5 856V827L1638 823V869.81M1676.5 856L1638 869.81M1577 1020.5V995.5M1577 1020.5H1501M1524.5 936H1548.25M1572 936H1577V995.5M1572 936V894H1548.5M1572 936H1548.25M1548.5 894L1548.25 936M1548.5 894V864.5H1530M1493.5 902V842M1431.5 902H1518.5V922M1431.5 902H1412.5V922M1431.5 902V839.25M1518.5 922H1524.5V995.5M1518.5 922H1412.5M1524.5 1002V995.5M1524.5 995.5H1577M1412.5 922H1405V951M1405 1020.5H1426.5M1405 1020.5H1361M1405 1020.5V951M1426.5 1020.5V944H1439.5V1020.5M1426.5 1020.5H1439.5M1439.5 1020.5H1457.5M1457.5 1020.5V944H1470.5V1020.5M1457.5 1020.5H1470.5M1470.5 1020.5H1488M1488 1020.5V944H1501V1020.5M1488 1020.5H1501M1361 1020.5V951H1376M1361 1020.5H1346.75M1405 951H1376M1376 951V934M1332.5 922V905.5L1364 891.741M1364 891.741L1376 886.5V917M1364 891.741V840L1379 839.833M1431.5 839.25V776.5H1493.5V842M1431.5 839.25L1416 839.422M1416 839.422V818.5H1397.5M1416 839.422L1379 839.833M1379 839.833V818.5H1397.5M1397.5 818.5V793M1376 917H1359.5M1376 917V934M1376 934H1359.5M1332.5 1020.5V944M1332.5 1020.5H1267.5M1332.5 1020.5H1346.75M1213.5 1020.5V889.5M1213.5 1020.5H1249M1213.5 1020.5H1192.5M1213.5 889.5V858.5H1207M1213.5 889.5H1259.5V956.049M1129 1020.5V919.5M1129 1020.5H1094.5M1129 1020.5H1152.5M1207 858.5V843H1198M1207 858.5H1137.5M1137.5 858.5H1129V919.5M1137.5 858.5V843H1145M1145 843V827.5H1152.5M1145 843H1198M1198 843V827.5H1171.5M1171.5 827.5V803M1171.5 827.5H1152.5M1152.5 827.5V806L1105.5 834V919.5H1129M1129 919.5H1083.5V954M1011.5 1020.5V960.5H918.5M1011.5 1020.5H975.25M1011.5 1020.5H1074.5M903 1020.5V960.5H918.5M903 1020.5H939M903 1020.5H975.25M903 1020.5H871M939 1020.5V993.5M939 1020.5H975.25M975.25 1020.5V993.5M918.5 960.5V883H871M839.5 883H871M871 883V853M871 883V913.5M871 1020.5V974.5M871 1020.5H777M871 853V974.5M871 853H794V865V774H778.5C778.5 750.528 761.576 738.512 745 738.749M871 913.5H839.5M871 913.5V944.5M871 944.5H839.5M871 944.5V974.5M871 974.5H839.5M698 832.5V774H713.5C713.5 750.492 729.09 738.977 745 738.749M636 896.5H681.5M636 896.5H559.5V1020.5M636 896.5V864.5M730 896.5V928.5M730 896.5H681.5M730 896.5V864.5M730 928.5H794M730 928.5H713.5M807 974.5V928.5H794M794 928.5V896.5M559.5 1020.5H514M559.5 1020.5H590M681.5 1020.5H713.5M681.5 1020.5V990.5M681.5 1020.5H651M681.5 896.5V928.5M713.5 1020.5V990.5M713.5 1020.5H745M713.5 928.5H681.5M713.5 928.5V960.5M681.5 928.5V960.5M713.5 960.5H681.5M713.5 960.5V990.5M681.5 960.5V990.5M681.5 990.5H713.5M483 1020.5H432M483 1020.5H514M483 1020.5V893.5M432 1020.5H361.5M432 1020.5V976.5M514 1020.5V893.5H483M483 893.5V811H432V875.5M361.5 1020.5H301M361.5 1020.5V976.5M309 846.5H301V1020.5M309 846.5V820H317M309 846.5H352M352 846.5H361.5V906.5M352 846.5V820H344M344 820H317M344 820C344 815.5 347.5 792.5 331 792.5M317 820C317 815.5 313 792.5 331 792.5M331 792.5V766.5M301 1020.5H259M361.5 976.5H396.75M361.5 976.5V906.5M432 976.5H396.75M432 976.5V875.5M396.75 976.5V906.5M432 875.5H396.75V906.5M396.75 906.5H361.5M259 1020.5V910H252M259 1020.5H94M259 1020.5C252.5 1012 248 1007.62 244 1005.81M184.5 998.5V910H192M192 910V895H214.5M192 910H252M252 895V910M252 895H244.5M252 895H214.5M244.5 895V872.5H237M244.5 895H229.5M229.5 895V872.5H237M229.5 895H214.5M237 872.5V857M214.5 895V813L192 817.561M140.5 993V849.5M140.5 849.5V828L162.7 823.5M140.5 849.5H81M72.5 849.5H81M81 849.5V902M94 1020.5C85 1009.5 108.5 981 129.5 1006C134 988.5 161 984 170.5 1002.5C173 997.5 187.5 995.5 191.5 1003.5C193.305 1000.01 196.036 997.101 199.275 995M94 1020.5H72.5M72.5 1020.5V1003.5M72.5 1020.5H58M72.5 927.5V953.5M72.5 953.5C45 953.5 45 902 72.5 902C81.5867 902 87.8262 907.056 91.2186 914M72.5 953.5V1003.5M72.5 953.5C92.4133 953.5 98.6528 929.217 91.2186 914M72.5 1003.5L95 976.5V966M95 966C122.5 966 129.5 911 91.2186 914M95 966C86 966 79 957.5 79 952.528M1267.5 1020.5V1001.5M1267.5 1020.5H1249M1267.5 1001.5C1290.7 1001.5 1292 954 1267.5 954C1258.14 954 1252.55 960.932 1250.5 969.5M1267.5 1001.5C1264.97 1001.5 1262.71 1000.94 1260.7 999.932M1074.5 1020.5V1001M1074.5 1020.5H1094.5M1074.5 1001C1050.1 1001 1051.5 954 1074.5 954C1083.85 954 1089.63 959.89 1092.13 967.5M1074.5 1001C1077.53 1001 1080.22 1000.27 1082.55 999M1249 1020.5V1009M1249 1009C1231 1009 1226 969.5 1250.5 969.5M1249 1009C1258 1009 1260.7 999.932 1260.7 999.932M1250.5 969.5C1247.77 980.917 1251.35 995.238 1260.7 999.932M1094.5 1020.5V1009M1094.5 1009C1082.1 1009 1082.55 1001 1082.55 999M1094.5 1009C1115 1009 1114 970 1092.13 967.5M1082.55 999C1092.33 993.66 1095.8 978.713 1092.13 967.5M1729 1020.5V1001M1729 1001C1747.8 1001 1747.5 961 1729 961C1712 961 1710.2 1001 1729 1001ZM1683.5 1020.5V1000.75M1683.5 1020.5H1637.5M1683.5 1000.75C1665 1000.75 1665 961 1683.5 961C1701 961 1702 1000.75 1683.5 1000.75ZM1637.5 1020.5V1000.75M1637.5 1000.75C1655.5 1000.75 1654.7 961 1637.5 961C1620.3 961 1619.5 1000.75 1637.5 1000.75ZM58 1020.5V999.5M58 999.5C38.5 999.5 37.5 961.5 58 961.5C74.8 961.5 79 999.5 58 999.5ZM199.275 995V924H221.637M199.275 995C205.804 990.765 214.399 989.816 221.637 994.035M244 1005.81C240 1004 236.5 1004.75 232 1006.5C229.393 1000.46 225.733 996.422 221.637 994.035M244 1005.81V924H221.637M221.637 924V994.035M162.7 823.5V804.5M162.7 823.5L177 820.601M177 820.601V797M177 820.601L192 817.561M192 817.561V804.5M745 1020.5V993.5M745 1020.5H777M777 1020.5V993.5M777 1020.5H1152.5M1152.5 1020.5V993.5M1152.5 1020.5H1171.5M1171.5 1020.5V993.5M1171.5 1020.5H1192.5M1192.5 1020.5V993.5M1192.5 1020.5H1346.75M1192.5 993.5H1142.5H1199.5H1192.5ZM1346.75 1020.5V993.5M1998.5 1020.5V993.5M1998.5 1020.5H2014M2014 1020.5V993.5M2014 1020.5H1967.5M620.5 1020.5V993.5M620.5 1020.5H651M620.5 1020.5H590M620.5 1020.5H1953M651 1020.5V993.5M651 1020.5H590M590 1020.5V993.5M745 738.749V694M636 864.5V832.5H730V864.5M636 864.5H730M371.5 998.5H422M379 919V940.75V962.5M414.5 962.5V889M331 1002V986M317.5 984.5V968.5M344 984.5V968.5M331 966.5V950.5M317.5 949V933M344 949V933M331 933V917M317.5 915.5V899.5M344 915.5V899.5M331 897.5V881.5M317.5 880V864M344 880V864M1493.5 842V864.5H1530M1493.5 842H1514L1530 864.5M466.5 1002V986M448.5 843V827M466.5 973.5V827M448.5 1002V854.5M745 960.5H777M1347 916.5V917.5M1347 933.5V934.5M1347 949.5V950.5M1346.75 964V965M1346.75 980V981M1750 905H1749M1750 918H1749M1737 905H1736M1737 918H1736M1723.5 905H1722.5M1723.5 918H1722.5M1710.5 905H1709.5M1710.5 918H1709.5M1723.5 931H1722.5M1723.5 944H1722.5M1710.5 931H1709.5M1710.5 944H1709.5M1710.5 957H1709.5M1763.5 944H1762.5M1763.5 957H1762.5M1750.5 944H1749.5M1750.5 957H1749.5M1637.5 924H1684M1637.5 937H1684M1637 950H1683.5M1664 836H1663M1664 849H1663M1651 836H1650M1651 849H1650M1953 849.5V949.5M1938.5 849.5V949.5M1967.5 849.5V949.5M1967.5 1020.5V993.5M1967.5 1020.5H1953M1953 1020.5V993.5M1883.5 878H1884M1910.5 878H1911M1897 878H1897.5M1883.5 891H1884M1910.5 891H1911M1897 891H1897.5M1883.5 904H1884M1910.5 904H1911M1897 904H1897.5M1883.5 917H1884M1910.5 917H1911M1897 917H1897.5M1883.5 930H1884M1910.5 930H1911M1897 930H1897.5M1883.5 943H1884M1910.5 943H1911M1897 943H1897.5M1874 978.5H1920.5M1874 991.5H1920.5M1873.5 1004.5H1920M730 808V804M730 800V804M730 804H726M730 804H734M762 808V804M762 804V800M762 804H758M762 804H766M762 840V836M762 836V832M762 836H758M762 836H766M762 872V868M762 868V864M762 868H758M762 868H766M762 904V900M762 900V896M762 900H758M762 900H766M95.5 864V864.5M110.5 864.5V865M125.5 864.5V865M95.5 879.5V880M110.5 880V880.5M125.5 880V880.5M95.5 895V895.5M110.5 895.5V896M125.5 895.5V896M1379 852.5H1416V874.5H1379V852.5ZM2021.5 900H2046.5V876.5H2021.5V900ZM155 842V865H170V842H155ZM185 842V865H200V842H185ZM155 879.5V902.5H170V879.5H155ZM155 917V940H170V917H155ZM155 954.5V977.5H170V954.5H155Z" stroke="#F0F7EE" stroke-width="8" stroke-linecap="round"/>
<path d="M370.5 801H414C432.5 797.5 421 770 404 776.5C404 760.5 378.5 764 378.5 776.5C357 770 357.7 801 370.5 801Z" stroke="#F0F7EE" stroke-width="8"/>
<path d="M1089.5 861.5H1061C1053.5 861.5 1050.7 845.5 1063.5 845.5C1063.5 830.5 1086.5 830.5 1086.5 845.5C1097 845.5 1097.5 861.5 1089.5 861.5Z" stroke="#F0F7EE" stroke-width="8"/>
<path d="M48.0097 777.227H91.5097C110.01 773.727 98.5098 746.227 81.5097 752.727C81.5097 736.728 56.0097 740.227 56.0097 752.727C34.5097 746.228 35.2097 777.227 48.0097 777.227Z" stroke="#F0F7EE" stroke-width="8"/>
<path d="M962.5 777.227H919C900.5 773.727 912 746.227 929 752.727C929 736.728 954.5 740.227 954.5 752.727C976 746.228 975.3 777.227 962.5 777.227Z" stroke="#F0F7EE" stroke-width="8"/>
<path d="M243.5 837.727H272C279.5 837.727 282.3 821.727 269.5 821.727C269.5 806.727 246.5 806.727 246.5 821.727C236 821.727 235.5 837.727 243.5 837.727Z" stroke="#F0F7EE" stroke-width="8"/>
<path d="M2020.5 773.5H1977C1958.5 770 1970 742.5 1987 749C1987 733 2012.5 736.5 2012.5 749C2034 742.5 2033.3 773.5 2020.5 773.5Z" stroke="#F0F7EE" stroke-width="8"/>
<path d="M611 738.5H639.5C647 738.5 649.8 722.5 637 722.5C637 707.5 614 707.5 614 722.5C603.5 722.5 603 738.5 611 738.5Z" stroke="#F0F7EE" stroke-width="8"/>
<path d="M1750 852H1736C1731.63 852 1727.26 843.632 1730.03 838M1750 852H1767C1779.8 852 1774 820 1754 842C1770.82 823.5 1740.5 814 1740 833C1734.43 833.164 1731.39 835.258 1730.03 838M1750 852C1750 861.5 1744 865.5 1740 865.5H1712C1700.8 865.5 1701 846 1713.5 846C1713.5 836 1723.5 832.5 1730.03 838" stroke="#F0F7EE" stroke-width="8"/>
<path d="M1323.15 780.385H1309.15C1304.78 780.385 1300.41 772.017 1303.18 766.385M1323.15 780.385H1340.15C1352.95 780.385 1347.15 748.385 1327.15 770.385C1343.97 751.885 1313.65 742.385 1313.15 761.385C1307.58 761.548 1304.54 763.642 1303.18 766.385M1323.15 780.385C1323.15 789.885 1317.15 793.885 1313.15 793.885H1285.15C1273.95 793.885 1274.15 774.385 1286.65 774.385C1286.65 764.385 1296.65 760.885 1303.18 766.385" stroke="#F0F7EE" stroke-width="8"/>
<path d="M540.798 843.385H554.798C559.169 843.385 563.541 835.017 560.764 829.385M540.798 843.385H523.798C510.998 843.385 516.797 811.385 536.797 833.385C519.979 814.885 550.298 805.385 550.798 824.385C556.365 824.548 559.412 826.642 560.764 829.385M540.798 843.385C540.798 852.885 546.798 856.885 550.798 856.885H578.798C589.998 856.885 589.798 837.385 577.298 837.385C577.298 827.385 567.298 823.885 560.764 829.385" stroke="#F0F7EE" stroke-width="8"/>
<path d="M1281.5 845.5H1254.5C1246.5 845.5 1244.5 831 1256.5 831C1255.5 815 1280 814.5 1280 831C1289 831 1291 845.5 1281.5 845.5Z" stroke="#F0F7EE" stroke-width="8"/>
<path d="M1583.5 815.688H1556.5C1548.5 815.688 1546.5 801.188 1558.5 801.188C1557.5 785.188 1582 784.688 1582 801.188C1591 801.188 1593 815.688 1583.5 815.688Z" stroke="#F0F7EE" stroke-width="8"/>
<path d="M620.5 982.999V955.999M590 982.999V955.999M651 982.999V955.999M620.5 944V917M590 944V917M651 944V917" stroke="#F0F7EE" stroke-width="8" stroke-linecap="round"/>
<path d="M1164 974V935.136M1148 974V935.136M1180 974V935.136M1164 917.864V879M1148 917.864V879M1180 917.864V879M1196 974V935.136M1196 917.865V879" stroke="#F0F7EE" stroke-width="8" stroke-linecap="round"/>
<path d="M1445 879H1478.5M1445 858H1478.5M1445 838H1478.5M1445 817H1478.5M1445 797H1478.5" stroke="#F0F7EE" stroke-width="8" stroke-linecap="round"/>
<defs>
<linearGradient id="paint0_linear_34_22" x1="1048" y1="1024" x2="1048" y2="0" gradientUnits="userSpaceOnUse">
<stop stop-color="#57E6F9"/>
<stop offset="0.798077" stop-color="#453F78"/>
</linearGradient>
</defs>
</svg>