<svg width="520" height="178" viewBox="0 0 520 178" fill="none" xmlns="http://www.w3.org/2000/svg">
<path d="M177.188 72.75C177.188 76.5 176.688 80.0208 175.688 83.3125C174.688 86.6042 173.292 89.6458 171.5 92.4375C169.75 95.2292 167.625 97.75 165.125 100C162.625 102.208 159.875 104.083 156.875 105.625C153.917 107.167 150.729 108.354 147.312 109.188C143.938 110.021 140.458 110.438 136.875 110.438C133.292 110.438 129.812 110.021 126.438 109.188C123.062 108.354 119.875 107.167 116.875 105.625C113.917 104.083 111.188 102.208 108.688 100C106.188 97.75 104.042 95.2292 102.25 92.4375C100.5 89.6458 99.125 86.6042 98.125 83.3125C97.125 79.9792 96.625 76.4583 96.625 72.75C96.625 69.0417 97.125 65.5417 98.125 62.25C99.125 58.9167 100.5 55.8542 102.25 53.0625C104.042 50.2708 106.188 47.7708 108.688 45.5625C111.188 43.3125 113.917 41.4167 116.875 39.875C119.875 38.3333 123.062 37.1458 126.438 36.3125C129.812 35.4792 133.292 35.0625 136.875 35.0625C140.458 35.0625 143.938 35.4792 147.312 36.3125C150.729 37.1458 153.917 38.3333 156.875 39.875C159.875 41.4167 162.625 43.3125 165.125 45.5625C167.625 47.7708 169.75 50.2708 171.5 53.0625C173.292 55.8542 174.688 58.9167 175.688 62.25C176.688 65.5417 177.188 69.0417 177.188 72.75ZM155.688 72.75C155.688 70.75 155.562 68.6458 155.312 66.4375C155.104 64.1875 154.729 62 154.188 59.875C153.646 57.7083 152.896 55.6458 151.938 53.6875C151.021 51.6875 149.875 49.9583 148.5 48.5C147.125 47 145.479 45.8125 143.562 44.9375C141.646 44.0208 139.417 43.5625 136.875 43.5625C134.458 43.5625 132.312 44.0208 130.438 44.9375C128.562 45.8542 126.917 47.0833 125.5 48.625C124.125 50.125 122.958 51.875 122 53.875C121.083 55.875 120.333 57.9583 119.75 60.125C119.167 62.25 118.75 64.4167 118.5 66.625C118.25 68.7917 118.125 70.8333 118.125 72.75C118.125 74.6667 118.25 76.7292 118.5 78.9375C118.75 81.1042 119.167 83.2708 119.75 85.4375C120.333 87.6042 121.083 89.6875 122 91.6875C122.958 93.6458 124.125 95.3958 125.5 96.9375C126.917 98.4375 128.562 99.6458 130.438 100.562C132.312 101.479 134.458 101.938 136.875 101.938C139.375 101.938 141.583 101.5 143.5 100.625C145.417 99.7083 147.062 98.5 148.438 97C149.854 95.5 151.021 93.7708 151.938 91.8125C152.854 89.8542 153.583 87.7917 154.125 85.625C154.708 83.4583 155.104 81.2708 155.312 79.0625C155.562 76.8542 155.688 74.75 155.688 72.75ZM346.188 41.3125L335.5 45.8125C334.667 43.1042 333.542 40.625 332.125 38.375C330.75 36.125 329.083 34.2083 327.125 32.625C325.208 31 323.021 29.75 320.562 28.875C318.104 27.9583 315.417 27.5 312.5 27.5C309.375 27.5 306.5 28.0208 303.875 29.0625C301.292 30.0625 298.958 31.4583 296.875 33.25C294.833 35.0417 293.042 37.125 291.5 39.5C289.958 41.875 288.667 44.4167 287.625 47.125C286.583 49.7917 285.812 52.5625 285.312 55.4375C284.812 58.3125 284.562 61.125 284.562 63.875C284.562 68.25 285.062 72.6042 286.062 76.9375C287.104 81.2708 288.729 85.1667 290.938 88.625C293.188 92.0833 296.083 94.8958 299.625 97.0625C303.167 99.1875 307.458 100.25 312.5 100.25C315.167 100.25 317.688 99.8125 320.062 98.9375C322.438 98.0208 324.583 96.7917 326.5 95.25C328.458 93.6667 330.167 91.8125 331.625 89.6875C333.083 87.5625 334.25 85.2708 335.125 82.8125L345.938 87.125C344.354 91.0833 342.188 94.5625 339.438 97.5625C336.688 100.521 333.542 102.979 330 104.938C326.5 106.896 322.729 108.354 318.688 109.312C314.688 110.312 310.646 110.812 306.562 110.812C302.146 110.812 297.896 110.271 293.812 109.188C289.771 108.104 286 106.562 282.5 104.562C279 102.562 275.812 100.146 272.938 97.3125C270.104 94.4792 267.667 91.3333 265.625 87.875C263.625 84.4167 262.062 80.6667 260.938 76.625C259.854 72.5417 259.312 68.2917 259.312 63.875C259.312 59.4583 259.854 55.2292 260.938 51.1875C262.062 47.1042 263.625 43.3333 265.625 39.875C267.667 36.375 270.104 33.2083 272.938 30.375C275.812 27.5417 279 25.125 282.5 23.125C286 21.125 289.771 19.5833 293.812 18.5C297.896 17.4167 302.146 16.875 306.562 16.875C310.812 16.875 314.958 17.375 319 18.375C323.083 19.375 326.875 20.8958 330.375 22.9375C333.875 24.9375 336.979 27.4792 339.688 30.5625C342.438 33.6042 344.604 37.1875 346.188 41.3125ZM422.75 109H401.562V45.1875H388.438V36.8125H401.562V10.25H422.75V36.8125H444.625V45.1875H422.75V109ZM519.062 36.8125L492.812 100.312C489.812 107.562 486.458 114.729 482.75 121.812C479.083 128.938 475.104 135.771 470.812 142.312L462.562 137.312C463.604 135.438 464.833 133.271 466.25 130.812C467.667 128.354 469.062 125.812 470.438 123.188C471.812 120.562 473.083 117.958 474.25 115.375C475.417 112.833 476.312 110.5 476.938 108.375L445.375 36.8125H466.5L487.938 85.625L504.438 36.8125H519.062Z" fill="#F0F7EE"/>
<path d="M470.5 133.5C434 199.5 290 165.5 235.5 144C149 109.876 48.1667 130 3.5 155" stroke="#F0F7EE" stroke-width="10"/>
<path d="M191.5 108V4H198L211 25.7905V108H191.5Z" stroke="#F0F7EE" stroke-width="2.5"/>
<path d="M197 108V102.057H201M205 108V102.057H201M201 102.057V108" stroke="#F0F7EE" stroke-width="2.5"/>
<path d="M194 96.1143H208" stroke="#F0F7EE" stroke-width="2.5"/>
<path d="M194 90.1714H208" stroke="#F0F7EE" stroke-width="2.5"/>
<path d="M194 84.2286H208" stroke="#F0F7EE" stroke-width="2.5"/>
<path d="M194 78.2857H208" stroke="#F0F7EE" stroke-width="2.5"/>
<path d="M194 72.3428H208" stroke="#F0F7EE" stroke-width="2.5"/>
<path d="M194 66.4H208" stroke="#F0F7EE" stroke-width="2.5"/>
<path d="M194 60.4572H208" stroke="#F0F7EE" stroke-width="2.5"/>
<path d="M194 54.5143H208" stroke="#F0F7EE" stroke-width="2.5"/>
<path d="M194 48.5714H208" stroke="#F0F7EE" stroke-width="2.5"/>
<path d="M194 42.6285H208" stroke="#F0F7EE" stroke-width="2.5"/>
<path d="M194 36.6857H208" stroke="#F0F7EE" stroke-width="2.5"/>
<path d="M194 30.7429H208" stroke="#F0F7EE" stroke-width="2.5"/>
<path d="M194 24.8H208" stroke="#F0F7EE" stroke-width="2.5"/>
<path d="M194 18.8571H204" stroke="#F0F7EE" stroke-width="2.5"/>
<path d="M194 12.9143H200" stroke="#F0F7EE" stroke-width="2.5"/>
<path d="M370 37V108" stroke="#F0F7EE" stroke-width="21"/>
<path d="M367.681 6.55762C368.574 5.32282 370.426 5.32282 371.319 6.55762L371.406 6.68555L372.67 8.7002L374.825 7.68945L374.966 7.62891C376.432 7.05359 378.049 8.14259 378.031 9.75L378.005 12.1289L380.365 12.4434C382.01 12.662 382.86 14.5242 381.948 15.9102L380.64 17.8975L382.455 19.4375C383.721 20.5104 383.43 22.5369 381.913 23.21L379.737 24.1748L380.433 26.4512C380.917 28.038 379.576 29.5859 377.937 29.332L375.584 28.9678L374.938 31.2588C374.488 32.8555 372.523 33.432 371.281 32.332L369.5 30.7539L367.719 32.332C366.477 33.432 364.512 32.8555 364.062 31.2588L363.415 28.9678L361.063 29.332C359.424 29.5859 358.083 28.038 358.567 26.4512L359.262 24.1748L357.087 23.21C355.57 22.5369 355.279 20.5104 356.545 19.4375L358.359 17.8975L357.052 15.9102C356.14 14.5242 356.99 12.662 358.635 12.4434L360.994 12.1289L360.969 9.75C360.951 8.14259 362.568 7.05359 364.034 7.62891L364.175 7.68945L366.329 8.7002L367.594 6.68555L367.681 6.55762Z" stroke="#F0F7EE" stroke-width="2.5"/>
<path d="M237.5 37.5V108.5" stroke="#F0F7EE" stroke-width="21"/>
<path d="M235.681 6.55762C236.574 5.32282 238.426 5.32282 239.319 6.55762L239.406 6.68555L240.67 8.7002L242.825 7.68945L242.966 7.62891C244.432 7.05359 246.049 8.14259 246.031 9.75L246.005 12.1289L248.365 12.4434C250.01 12.662 250.86 14.5242 249.948 15.9102L248.64 17.8975L250.455 19.4375C251.721 20.5104 251.43 22.5369 249.913 23.21L247.737 24.1748L248.433 26.4512C248.917 28.038 247.576 29.5859 245.937 29.332L243.584 28.9678L242.938 31.2588C242.488 32.8555 240.523 33.432 239.281 32.332L237.5 30.7539L235.719 32.332C234.477 33.432 232.512 32.8555 232.062 31.2588L231.415 28.9678L229.063 29.332C227.424 29.5859 226.083 28.038 226.567 26.4512L227.262 24.1748L225.087 23.21C223.57 22.5369 223.279 20.5104 224.545 19.4375L226.359 17.8975L225.052 15.9102C224.14 14.5242 224.99 12.662 226.635 12.4434L228.994 12.1289L228.969 9.75C228.951 8.14259 230.568 7.05359 232.034 7.62891L232.175 7.68945L234.329 8.7002L235.594 6.68555L235.681 6.55762Z" stroke="#F0F7EE" stroke-width="2.5"/>
<path d="M33 28L11.5 20.5V107.5H33V28Z" fill="#F0F7EE"/>
<path d="M36.5 26L22 20.5C38 19.1667 63.5 18 74.5 23.5C81.5 26 92 33 89 53C84.5 66 74.5 74.5 60 74.5H36.5V68.5C47 68.5 55.5 69.5 62.5 63C65.6667 57.6667 70.1 43.9 62.5 31.5C62.1667 29.6667 57.7 26 36.5 26Z" fill="#F0F7EE"/>
<path d="M33 28L11.5 20.5V107.5H33V28Z" stroke="#F0F7EE" stroke-width="2"/>
<path d="M36.5 26L22 20.5C38 19.1667 63.5 18 74.5 23.5C81.5 26 92 33 89 53C84.5 66 74.5 74.5 60 74.5H36.5V68.5C47 68.5 55.5 69.5 62.5 63C65.6667 57.6667 70.1 43.9 62.5 31.5C62.1667 29.6667 57.7 26 36.5 26Z" stroke="#F0F7EE" stroke-width="2"/>
</svg>