<svg width="100" height="100" viewBox="0 0 100 120" fill="none" xmlns="http://www.w3.org/2000/svg">
<circle cx="50" cy="60" r="48" fill="white" />
<path d="M33 28L11.5 20.5V107.5H33V28Z" fill="#453F78"/>
<path d="M36.5 26L22 20.5C38 19.1667 63.5 18 74.5 23.5C81.5 26 92 33 89 53C84.5 66 74.5 74.5 60 74.5H36.5V68.5C47 68.5 55.5 69.5 62.5 63C65.6667 57.6667 70.1 43.9 62.5 31.5C62.1667 29.6667 57.7 26 36.5 26Z" fill="#453F78"/>
<path d="M33 28L11.5 20.5V107.5H33V28Z" stroke="#453F78" stroke-width="2"/>
<path d="M36.5 26L22 20.5C38 19.1667 63.5 18 74.5 23.5C81.5 26 92 33 89 53C84.5 66 74.5 74.5 60 74.5H36.5V68.5C47 68.5 55.5 69.5 62.5 63C65.6667 57.6667 70.1 43.9 62.5 31.5C62.1667 29.6667 57.7 26 36.5 26Z" stroke="#453F78" stroke-width="2"/>
</svg>